<svg width="20" height="20" viewBox="0 0 20 20" fill="none" xmlns="http://www.w3.org/2000/svg">
<path d="M19.0337 0.0708009C18.8026 0.076258 18.5831 0.17292 18.423 0.339681L10 8.7627L1.577 0.339681C1.49544 0.255689 1.39785 0.188917 1.29002 0.143319C1.18219 0.0977207 1.06631 0.0742235 0.949233 0.0742188C0.775095 0.0742613 0.60493 0.126257 0.460509 0.223553C0.316088 0.320849 0.203979 0.45902 0.138526 0.620389C0.0730734 0.781757 0.0572535 0.958985 0.0930901 1.12939C0.128927 1.29981 0.21479 1.45565 0.339695 1.57699L8.76271 10L0.339695 18.423C0.25572 18.5036 0.188677 18.6002 0.142492 18.7071C0.0963063 18.8139 0.0719075 18.9289 0.0707239 19.0454C0.0695404 19.1618 0.0915959 19.2772 0.135599 19.385C0.179602 19.4928 0.244668 19.5907 0.326986 19.673C0.409304 19.7553 0.50722 19.8204 0.614999 19.8644C0.722778 19.9084 0.838253 19.9305 0.954663 19.9293C1.07107 19.9281 1.18608 19.9037 1.29294 19.8575C1.3998 19.8113 1.49637 19.7443 1.577 19.6603L10 11.2373L18.423 19.6603C18.5037 19.7443 18.6002 19.8113 18.7071 19.8575C18.814 19.9037 18.929 19.9281 19.0454 19.9293C19.1618 19.9305 19.2772 19.9084 19.385 19.8644C19.4928 19.8204 19.5907 19.7553 19.673 19.673C19.7554 19.5907 19.8204 19.4928 19.8644 19.385C19.9084 19.2772 19.9305 19.1618 19.9293 19.0454C19.9281 18.9289 19.9037 18.8139 19.8575 18.7071C19.8113 18.6002 19.7443 18.5036 19.6603 18.423L11.2373 10L19.6603 1.57699C19.7876 1.45486 19.8749 1.29714 19.911 1.12449C19.947 0.951849 19.9301 0.772343 19.8623 0.609506C19.7946 0.44667 19.6792 0.308104 19.5313 0.211973C19.3835 0.115843 19.21 0.0666352 19.0337 0.0708009Z" fill="white"/>
</svg>
