<?xml version="1.0" encoding="utf-8"?>
<!-- Generator: Adobe Illustrator 24.1.2, SVG Export Plug-In . SVG Version: 6.00 Build 0)  -->
<svg version="1.2" baseProfile="tiny" id="Layer_1" xmlns="http://www.w3.org/2000/svg" xmlns:xlink="http://www.w3.org/1999/xlink"
	 x="0px" y="0px" viewBox="0 0 22 20" overflow="visible" xml:space="preserve">
<path fill="#00004a" d="M16.6,6.5c-0.3-0.3-0.7-0.4-1.1-0.1l-3.1,2.5C12,9.2,11.5,9.3,11,9.3c-0.5,0-1-0.1-1.4-0.4L6.5,6.4
	C6.1,6.2,5.7,6.2,5.4,6.5C5.2,6.9,5.2,7.3,5.5,7.6l3.1,2.5c0.7,0.5,1.5,0.8,2.4,0.8c0.8,0,1.7-0.3,2.3-0.8l3.2-2.5
	C16.8,7.3,16.9,6.9,16.6,6.5z M20.1,2.2c-1.1-1-2.5-1.4-4.1-1.4H6c-1.6,0-3.1,0.4-4.1,1.4c-1.1,1-1.6,2.5-1.6,4.4v7
	c0,1.9,0.5,3.4,1.6,4.4C3,19,4.4,19.4,6,19.4h10c1.6,0,3.1-0.4,4.1-1.4c1.1-1,1.6-2.5,1.6-4.4v-7C21.7,4.7,21.2,3.2,20.1,2.2z
	 M20.2,13.5c0,1.6-0.5,2.6-1.1,3.3c-0.7,0.6-1.7,1-3.1,1H6c-1.4,0-2.4-0.3-3.1-1c-0.7-0.6-1.1-1.7-1.1-3.3v-7c0-1.6,0.5-2.6,1.1-3.3
	c0.7-0.6,1.7-1,3.1-1h10c1.4,0,2.4,0.3,3.1,1c0.7,0.6,1.1,1.7,1.1,3.3V13.5z M15.5,6.4l-3.1,2.5C12,9.2,11.5,9.3,11,9.3
	c-0.5,0-1-0.1-1.4-0.4L6.5,6.4C6.1,6.2,5.7,6.2,5.4,6.5C5.2,6.9,5.2,7.3,5.5,7.6l3.1,2.5c0.7,0.5,1.5,0.8,2.4,0.8
	c0.8,0,1.7-0.3,2.3-0.8l3.2-2.5c0.3-0.3,0.4-0.7,0.1-1.1C16.3,6.2,15.9,6.1,15.5,6.4z M16.6,6.5c-0.3-0.3-0.7-0.4-1.1-0.1l-3.1,2.5
	C12,9.2,11.5,9.3,11,9.3c-0.5,0-1-0.1-1.4-0.4L6.5,6.4C6.1,6.2,5.7,6.2,5.4,6.5C5.2,6.9,5.2,7.3,5.5,7.6l3.1,2.5
	c0.7,0.5,1.5,0.8,2.4,0.8c0.8,0,1.7-0.3,2.3-0.8l3.2-2.5C16.8,7.3,16.9,6.9,16.6,6.5z"/>
</svg>
