<svg width="100" height="112" viewBox="0 0 100 112" fill="none" xmlns="http://www.w3.org/2000/svg">
<path d="M98.6576 1.57999C98.2016 1.08319 97.5608 0.799988 96.8864 0.799988H3.1136C2.4392 0.799988 1.7984 1.08319 1.3424 1.57999C0.886402 2.07679 0.663202 2.74399 0.723202 3.41359L9.1712 98.0384C9.26 99.0272 9.9488 99.86 10.904 100.134L49.328 111.109C49.5416 111.169 49.7648 111.2 49.9856 111.2C50.2064 111.2 50.4296 111.169 50.6432 111.109L89.1008 100.134C90.056 99.86 90.7448 99.0272 90.8336 98.0384L99.2768 3.41359C99.3368 2.74399 99.1112 2.07679 98.6576 1.57999ZM18.8 65.6096L35.6 70.2704V22.4H45.2V84.8L18.8 77.4776V65.6096ZM81.3296 48.8L78.8 78.2L54.8 84.8V73.7576L71 69.3056L71.6 60.3056L54.8 63.2V22.4H83.6L82.772 32H64.4V51.2L81.3296 48.8Z" fill="#A3BDE8" fill-opacity="0.3"/>
</svg>
