<svg width="100" height="112" viewBox="0 0 100 112" fill="none" xmlns="http://www.w3.org/2000/svg">
<path d="M98.6563 1.57811C98.2063 1.08124 97.5594 0.799988 96.8844 0.799988H3.11563C2.44063 0.799988 1.79375 1.08124 1.34375 1.57811C0.884377 2.07499 0.659377 2.74061 0.725003 3.41561L9.17188 98.0375C9.25625 99.0312 9.95001 99.8562 10.9063 100.137L49.3344 111.106C49.5406 111.172 49.7656 111.2 49.9906 111.2C50.2156 111.2 50.4313 111.172 50.6469 111.106L89.1031 100.137C90.0594 99.8562 90.7438 99.0312 90.8375 98.0375L99.275 3.41561C99.3406 2.74061 99.1156 2.07499 98.6563 1.57811ZM78.4344 34.2031H33.2844L34.3625 46.4187H77.3469L74.1219 82.5219L49.9813 89.8156L49.7469 89.7406L25.8875 82.5125L24.5844 67.8031H36.275L36.7813 73.5125L50.1219 76.3062L63.2188 73.5125L64.6156 58.0625H23.7125L20.5344 22.5312H79.475L78.4344 34.2031Z" fill="#A3BDE8" fill-opacity="0.3"/>
</svg>
