<?xml version="1.0" encoding="utf-8"?>
<!-- Generator: Adobe Illustrator 24.1.2, SVG Export Plug-In . SVG Version: 6.00 Build 0)  -->
<svg version="1.1" id="Layer_1" xmlns="http://www.w3.org/2000/svg" xmlns:xlink="http://www.w3.org/1999/xlink" x="0px" y="0px"
	 viewBox="0 0 24 18" style="enable-background:new 0 0 24 18;" xml:space="preserve">
<style type="text/css">
	.st0{fill:#131347;}
</style>
<path class="st0" d="M1.5,0.2c-0.2,0-0.3,0-0.5,0.1C0.9,0.4,0.8,0.5,0.7,0.6C0.6,0.7,0.5,0.8,0.4,1C0.3,1.1,0.3,1.3,0.3,1.4
	s0,0.3,0.1,0.5C0.5,2,0.6,2.1,0.7,2.2C0.8,2.4,0.9,2.4,1,2.5c0.1,0.1,0.3,0.1,0.5,0.1h21c0.2,0,0.3,0,0.5-0.1
	c0.1-0.1,0.3-0.1,0.4-0.3c0.1-0.1,0.2-0.2,0.3-0.4c0.1-0.1,0.1-0.3,0.1-0.5s0-0.3-0.1-0.5c-0.1-0.1-0.1-0.3-0.3-0.4
	c-0.1-0.1-0.2-0.2-0.4-0.3c-0.1-0.1-0.3-0.1-0.5-0.1H1.5z M1.5,7.8c-0.2,0-0.3,0-0.5,0.1C0.9,8,0.8,8.1,0.7,8.2
	C0.6,8.3,0.5,8.4,0.4,8.5C0.3,8.7,0.3,8.8,0.3,9c0,0.2,0,0.3,0.1,0.5c0.1,0.1,0.1,0.3,0.3,0.4C0.8,9.9,0.9,10,1,10.1
	c0.1,0.1,0.3,0.1,0.5,0.1h21c0.2,0,0.3,0,0.5-0.1c0.1-0.1,0.3-0.1,0.4-0.3c0.1-0.1,0.2-0.2,0.3-0.4c0.1-0.1,0.1-0.3,0.1-0.5
	c0-0.2,0-0.3-0.1-0.5c-0.1-0.1-0.1-0.3-0.3-0.4C23.2,8.1,23.1,8,23,7.9c-0.1-0.1-0.3-0.1-0.5-0.1H1.5z M1.5,15.4
	c-0.2,0-0.3,0-0.5,0.1c-0.1,0.1-0.3,0.1-0.4,0.3c-0.1,0.1-0.2,0.2-0.3,0.4c-0.1,0.1-0.1,0.3-0.1,0.5s0,0.3,0.1,0.5
	c0.1,0.1,0.1,0.3,0.3,0.4c0.1,0.1,0.2,0.2,0.4,0.3c0.1,0.1,0.3,0.1,0.5,0.1h21c0.2,0,0.3,0,0.5-0.1c0.1-0.1,0.3-0.1,0.4-0.3
	c0.1-0.1,0.2-0.2,0.3-0.4c0.1-0.1,0.1-0.3,0.1-0.5s0-0.3-0.1-0.5c-0.1-0.1-0.1-0.3-0.3-0.4c-0.1-0.1-0.2-0.2-0.4-0.3
	c-0.1-0.1-0.3-0.1-0.5-0.1H1.5z"/>
</svg>
