<svg width="24" height="18" viewBox="0 0 24 18" fill="none" xmlns="http://www.w3.org/2000/svg">
<path d="M1.49999 0.249995C1.3454 0.247808 1.19191 0.27637 1.04844 0.334019C0.904981 0.391668 0.774406 0.477256 0.664309 0.585808C0.554211 0.69436 0.466785 0.823711 0.407113 0.966344C0.34744 1.10898 0.316711 1.26205 0.316711 1.41666C0.316711 1.57127 0.34744 1.72434 0.407113 1.86698C0.466785 2.00961 0.554211 2.13896 0.664309 2.24751C0.774406 2.35607 0.904981 2.44165 1.04844 2.4993C1.19191 2.55695 1.3454 2.58551 1.49999 2.58333H22.5C22.6546 2.58551 22.8081 2.55695 22.9515 2.4993C23.095 2.44165 23.2256 2.35607 23.3357 2.24751C23.4458 2.13896 23.5332 2.00961 23.5929 1.86698C23.6525 1.72434 23.6833 1.57127 23.6833 1.41666C23.6833 1.26205 23.6525 1.10898 23.5929 0.966344C23.5332 0.823711 23.4458 0.69436 23.3357 0.585808C23.2256 0.477256 23.095 0.391668 22.9515 0.334019C22.8081 0.27637 22.6546 0.247808 22.5 0.249995H1.49999ZM1.49999 7.83333C1.3454 7.83114 1.19191 7.8597 1.04844 7.91735C0.904981 7.975 0.774406 8.06059 0.664309 8.16914C0.554211 8.27769 0.466785 8.40704 0.407113 8.54968C0.34744 8.69231 0.316711 8.84538 0.316711 8.99999C0.316711 9.15461 0.34744 9.30768 0.407113 9.45031C0.466785 9.59295 0.554211 9.7223 0.664309 9.83085C0.774406 9.9394 0.904981 10.025 1.04844 10.0826C1.19191 10.1403 1.3454 10.1688 1.49999 10.1667H22.5C22.6546 10.1688 22.8081 10.1403 22.9515 10.0826C23.095 10.025 23.2256 9.9394 23.3357 9.83085C23.4458 9.7223 23.5332 9.59295 23.5929 9.45031C23.6525 9.30768 23.6833 9.15461 23.6833 8.99999C23.6833 8.84538 23.6525 8.69231 23.5929 8.54968C23.5332 8.40704 23.4458 8.27769 23.3357 8.16914C23.2256 8.06059 23.095 7.975 22.9515 7.91735C22.8081 7.8597 22.6546 7.83114 22.5 7.83333H1.49999ZM1.49999 15.4167C1.3454 15.4145 1.19191 15.443 1.04844 15.5007C0.904981 15.5583 0.774406 15.6439 0.664309 15.7525C0.554211 15.861 0.466785 15.9904 0.407113 16.133C0.34744 16.2756 0.316711 16.4287 0.316711 16.5833C0.316711 16.7379 0.34744 16.891 0.407113 17.0336C0.466785 17.1763 0.554211 17.3056 0.664309 17.4142C0.774406 17.5227 0.904981 17.6083 1.04844 17.666C1.19191 17.7236 1.3454 17.7522 1.49999 17.75H22.5C22.6546 17.7522 22.8081 17.7236 22.9515 17.666C23.095 17.6083 23.2256 17.5227 23.3357 17.4142C23.4458 17.3056 23.5332 17.1763 23.5929 17.0336C23.6525 16.891 23.6833 16.7379 23.6833 16.5833C23.6833 16.4287 23.6525 16.2756 23.5929 16.133C23.5332 15.9904 23.4458 15.861 23.3357 15.7525C23.2256 15.6439 23.095 15.5583 22.9515 15.5007C22.8081 15.443 22.6546 15.4145 22.5 15.4167H1.49999Z" fill="${Theme.hardText}"/>
</svg>
