<?xml version="1.0" encoding="utf-8"?>
<!-- Generator: Adobe Illustrator 24.1.2, SVG Export Plug-In . SVG Version: 6.00 Build 0)  -->
<svg version="1.1" id="e4yVGjIK2sw1" text-rendering="geometricPrecision" shape-rendering="geometricPrecision"
	 xmlns="http://www.w3.org/2000/svg" xmlns:xlink="http://www.w3.org/1999/xlink" x="0px" y="0px" viewBox="0 0 539.8 549.7"
	 style="enable-background:new 0 0 539.8 549.7;" xml:space="preserve">
<style type="text/css">
	.st0{fill:#376DB8;}
	.st1{fill:#FDFDFD;}
</style>
<g id="e4yVGjIK2sw2">
	<ellipse id="e4yVGjIK2sw3" class="st0" cx="269.5" cy="277.4" rx="257" ry="256.5"/>
</g>
<g id="e4yVGjIK2sw9">
	<g>
		<g>
			<circle id="e4yVGjIK2sw10" class="st0" cx="0" cy="0" r="16.5"/>
		</g>
	</g>
	<g>
		<g transform="rotate(-37.705)">
			<circle id="e4yVGjIK2sw11" class="st0" cx="0" cy="0" r="16.5"/>
		</g>
	</g>
	<g>
		<g>
			<circle id="e4yVGjIK2sw12" class="st0" cx="0" cy="0" r="16.5"/>
		</g>
	</g>
</g>
<path class="st1" d="M446,267.6c0,80.9-78.8,146.5-176.1,146.5c-14,0-27.5-1.4-40.5-3.9c-31,21.5-47.4,30.2-47.4,30.2
	c-10.9,5.7-40.8,21.7-45.3,15.9c-2.1-2.9,3.1-9.6,8-17.8c7.1-11.6,15.1-29.1,19-54.2c-42.4-26.7-69.7-69-69.7-116.7
	c0-80.9,78.8-146.6,176-146.6C367.2,121,446,186.7,446,267.6z"/>
</svg>
